<svg width="110" height="110" viewBox="0 0 110 110" fill="none" xmlns="http://www.w3.org/2000/svg">
<g clip-path="url(#clip0_8_411)">
<path d="M14.2241 28.4483C22.0799 28.4483 28.4483 22.0799 28.4483 14.2241C28.4483 6.36836 22.0799 0 14.2241 0C6.36836 0 0 6.36836 0 14.2241C0 22.0799 6.36836 28.4483 14.2241 28.4483Z" fill="#0E87C8"/>
<path d="M55 28.4483C62.8558 28.4483 69.2242 22.0799 69.2242 14.2241C69.2242 6.36836 62.8558 0 55 0C47.1442 0 40.7759 6.36836 40.7759 14.2241C40.7759 22.0799 47.1442 28.4483 55 28.4483Z" fill="#0E87C8"/>
<path d="M95.7759 28.4483C103.632 28.4483 110 22.0799 110 14.2241C110 6.36836 103.632 0 95.7759 0C87.9201 0 81.5517 6.36836 81.5517 14.2241C81.5517 22.0799 87.9201 28.4483 95.7759 28.4483Z" fill="#0E87C8"/>
<path d="M14.2241 69.2242C22.0799 69.2242 28.4483 62.8558 28.4483 55C28.4483 47.1442 22.0799 40.7759 14.2241 40.7759C6.36836 40.7759 0 47.1442 0 55C0 62.8558 6.36836 69.2242 14.2241 69.2242Z" fill="#0E87C8"/>
<path d="M55 69.2242C62.8558 69.2242 69.2242 62.8558 69.2242 55C69.2242 47.1442 62.8558 40.7759 55 40.7759C47.1442 40.7759 40.7759 47.1442 40.7759 55C40.7759 62.8558 47.1442 69.2242 55 69.2242Z" fill="#0E87C8"/>
<path d="M95.7759 69.2242C103.632 69.2242 110 62.8558 110 55C110 47.1442 103.632 40.7759 95.7759 40.7759C87.9201 40.7759 81.5517 47.1442 81.5517 55C81.5517 62.8558 87.9201 69.2242 95.7759 69.2242Z" fill="#0E87C8"/>
<path d="M14.2241 110C22.0799 110 28.4483 103.632 28.4483 95.7759C28.4483 87.9201 22.0799 81.5518 14.2241 81.5518C6.36836 81.5518 0 87.9201 0 95.7759C0 103.632 6.36836 110 14.2241 110Z" fill="#0E87C8"/>
<path d="M55 110C62.8558 110 69.2242 103.632 69.2242 95.7759C69.2242 87.9201 62.8558 81.5518 55 81.5518C47.1442 81.5518 40.7759 87.9201 40.7759 95.7759C40.7759 103.632 47.1442 110 55 110Z" fill="#0E87C8"/>
<path d="M95.7759 110C103.632 110 110 103.632 110 95.7759C110 87.9201 103.632 81.5518 95.7759 81.5518C87.9201 81.5518 81.5517 87.9201 81.5517 95.7759C81.5517 103.632 87.9201 110 95.7759 110Z" fill="#0E87C8"/>
<path d="M95.7759 14.2241H14.2242" stroke="#B3B3B3" stroke-width="4" stroke-linecap="round"/>
<path d="M12.3276 95.7758C12.3276 96.8237 13.1767 97.6724 14.2241 97.6724C15.2716 97.6724 16.1207 96.8237 16.1207 95.7758H12.3276ZM12.3276 14.2241V95.7758H16.1207V14.2241H12.3276Z" fill="#B3B3B3"/>
<path d="M95.7759 97.6724C96.8237 97.6724 97.6724 96.8237 97.6724 95.7759C97.6724 94.7284 96.8237 93.8793 95.7759 93.8793V97.6724ZM14.2242 97.6724H95.7759V93.8793H14.2242V97.6724Z" fill="#B3B3B3"/>
<path d="M97.6724 55C97.6724 53.9525 96.8237 53.1035 95.7759 53.1035C94.7284 53.1035 93.8793 53.9525 93.8793 55H97.6724ZM97.6724 95.7759V55H93.8793V95.7759H97.6724Z" fill="#B3B3B3"/>
<path d="M55 53.1035C53.9525 53.1035 53.1035 53.9525 53.1035 55C53.1035 56.0475 53.9525 56.8966 55 56.8966V53.1035ZM95.7759 53.1035H55V56.8966H95.7759V53.1035Z" fill="#B3B3B3"/>
</g>
<defs>
<clipPath id="clip0_8_411">
<rect width="110" height="110" fill="white"/>
</clipPath>
</defs>
</svg>
