<svg width="110" height="110" viewBox="0 0 110 110" fill="none" xmlns="http://www.w3.org/2000/svg">
<path d="M55.2954 104.045C42.3661 104.045 29.9664 98.9093 20.824 89.7669C11.6816 80.6245 6.54544 68.2247 6.54544 55.2954C6.54544 42.3661 11.6816 29.9664 20.824 20.824C29.9664 11.6816 42.3661 6.54541 55.2954 6.54541C82.2163 6.54541 104.045 25.9479 104.045 49.8787C104.045 55.6204 101.478 61.1346 96.9063 65.1971C92.3346 69.2596 86.1325 71.5454 79.6704 71.5454H66.1288C63.7122 71.5065 61.352 72.2768 59.4236 73.7337C57.4952 75.1907 56.1094 77.2507 55.4867 79.586C54.8639 81.9213 55.04 84.3978 55.9869 86.6215C56.9337 88.8452 58.597 90.6884 60.7121 91.8579C61.7936 92.8559 62.5353 94.1676 62.8329 95.6087C63.1306 97.0499 62.9692 98.5481 62.3716 99.8929C61.7739 101.238 60.7699 102.361 59.5008 103.106C58.2316 103.851 56.7609 104.179 55.2954 104.045Z" stroke="#0E87C8" stroke-width="8" stroke-linecap="round" stroke-linejoin="round"/>
<path d="M30.9204 47.1703C30.9204 48.6069 31.4911 49.9847 32.5069 51.0005C33.5228 52.0163 34.9005 52.587 36.3371 52.587C37.7737 52.587 39.1514 52.0163 40.1673 51.0005C41.1831 49.9847 41.7538 48.6069 41.7538 47.1703C41.7538 45.7337 41.1831 44.356 40.1673 43.3402C39.1514 42.3243 37.7737 41.7537 36.3371 41.7537C34.9005 41.7537 33.5228 42.3243 32.5069 43.3402C31.4911 44.356 30.9204 45.7337 30.9204 47.1703ZM52.5871 30.9203C52.5871 32.3569 53.1578 33.7347 54.1736 34.7505C55.1894 35.7663 56.5672 36.337 58.0038 36.337C59.4404 36.337 60.8181 35.7663 61.8339 34.7505C62.8498 33.7347 63.4204 32.3569 63.4204 30.9203C63.4204 29.4837 62.8498 28.106 61.8339 27.0902C60.8181 26.0743 59.4404 25.5037 58.0038 25.5037C56.5672 25.5037 55.1894 26.0743 54.1736 27.0902C53.1578 28.106 52.5871 29.4837 52.5871 30.9203ZM74.2538 47.1703C74.2538 48.6069 74.8245 49.9847 75.8403 51.0005C76.8561 52.0163 78.2339 52.587 79.6704 52.587C81.107 52.587 82.4848 52.0163 83.5006 51.0005C84.5164 49.9847 85.0871 48.6069 85.0871 47.1703C85.0871 45.7337 84.5164 44.356 83.5006 43.3402C82.4848 42.3243 81.107 41.7537 79.6704 41.7537C78.2339 41.7537 76.8561 42.3243 75.8403 43.3402C74.8245 44.356 74.2538 45.7337 74.2538 47.1703Z" fill="#0E87C8" stroke="#0E87C8" stroke-width="8" stroke-linecap="round" stroke-linejoin="round"/>
</svg>
