<svg width="110" height="110" viewBox="0 0 110 110" fill="none" xmlns="http://www.w3.org/2000/svg">
<path d="M71.25 33.3333C74.6136 35.8561 77.3437 39.1273 79.2241 42.888C81.1044 46.6487 82.0833 50.7955 82.0833 55C82.0833 59.2046 81.1044 63.3514 79.2241 67.112C77.3437 70.8727 74.6136 74.144 71.25 76.6667M85.875 17.0833C91.5298 21.6531 96.0909 27.4299 99.2242 33.9905C102.358 40.5511 103.984 47.7296 103.984 55C103.984 62.2705 102.358 69.4489 99.2242 76.0095C96.0909 82.5702 91.5298 88.3469 85.875 92.9167M22.5 71.25H11.6667C10.2301 71.25 8.85233 70.6793 7.8365 69.6635C6.82068 68.6477 6.25 67.2699 6.25 65.8334V44.1667C6.25 42.7301 6.82068 41.3523 7.8365 40.3365C8.85233 39.3207 10.2301 38.75 11.6667 38.75H22.5L41.4583 14.375C41.9318 13.4554 42.7185 12.7355 43.6764 12.3453C44.6343 11.9552 45.7001 11.9205 46.6814 12.2476C47.6626 12.5747 48.4945 13.2419 49.0267 14.1288C49.5589 15.0156 49.7563 16.0636 49.5833 17.0833V92.9167C49.7563 93.9364 49.5589 94.9844 49.0267 95.8713C48.4945 96.7581 47.6626 97.4254 46.6814 97.7525C45.7001 98.0795 44.6343 98.0449 43.6764 97.6547C42.7185 97.2645 41.9318 96.5446 41.4583 95.625L22.5 71.25Z" stroke="#0E87C8" stroke-width="8" stroke-linecap="round" stroke-linejoin="round"/>
</svg>
